<svg width="18" height="18" viewBox="0 0 18 18" fill="none" xmlns="http://www.w3.org/2000/svg">
<path d="M17.5356 4.61216L9.41563 0.112057C9.28221 0.038549 9.13235 0 8.98002 0C8.82769 0 8.67783 0.038549 8.54441 0.112057L0.46403 4.57616C0.323657 4.65389 0.206617 4.76773 0.12503 4.90589C0.0434432 5.04406 0.000276708 5.20152 1.32591e-06 5.36198C-0.000274056 5.52244 0.0423515 5.68005 0.123464 5.81849C0.204576 5.95694 0.321225 6.07118 0.46133 6.14939L8.58131 10.6855C8.71499 10.7606 8.86572 10.8001 9.01905 10.8003C9.17239 10.8004 9.3232 10.7612 9.45703 10.6864L17.5374 6.18629C17.6778 6.10823 17.7947 5.99403 17.876 5.85554C17.9574 5.71704 18.0002 5.55931 18 5.39869C17.9998 5.23808 17.9567 5.08044 17.875 4.94214C17.7933 4.80383 17.6762 4.6899 17.5356 4.61216V4.61216Z" fill="#36CCB1"/>
<path d="M8.99993 12.47L1.33626 8.21289L0.462341 9.78612L8.56252 14.2862C8.6962 14.3605 8.84658 14.3994 8.99948 14.3994C9.15238 14.3994 9.30277 14.3605 9.43644 14.2862L17.5366 9.78612L16.6627 8.21289L8.99993 12.47Z" fill="#36CCB1"/>
<path d="M8.99993 16.0696L1.33626 11.8125L0.462341 13.3857L8.56252 17.8858C8.6962 17.9601 8.84658 17.999 8.99948 17.999C9.15238 17.999 9.30277 17.9601 9.43644 17.8858L17.5366 13.3857L16.6627 11.8125L8.99993 16.0696Z" fill="#36CCB1"/>
</svg>
