<svg xmlns="http://www.w3.org/2000/svg" width="160" height="37" viewBox="0 0 160 37" fill="none"><g clip-path="url(#clip0_1081_9524)"><path d="M47.1932 0.5H0.276585C0.123831 0.5 0 0.623872 0 0.776677V10.0065C0 10.1593 0.123831 10.2832 0.276585 10.2832H47.1932C47.3459 10.2832 47.4698 10.1593 47.4698 10.0065V0.776677C47.4698 0.623872 47.3459 0.5 47.1932 0.5Z" fill="#FFB606"></path><path d="M33.6177 13.6078H0.276585C0.123831 13.6078 0 13.7317 0 13.8845V23.1143C0 23.2671 0.123831 23.391 0.276585 23.391H33.6177C33.7704 23.391 33.8942 23.2671 33.8942 23.1143V13.8845C33.8942 13.7317 33.7704 13.6078 33.6177 13.6078Z" fill="#FFB606"></path><path d="M47.1932 26.7169H0.276585C0.123831 26.7169 0 26.8407 0 26.9935V36.2233C0 36.3761 0.123831 36.5 0.276585 36.5H47.1932C47.3459 36.5 47.4698 36.3761 47.4698 36.2233V26.9935C47.4698 26.8407 47.3459 26.7169 47.1932 26.7169Z" fill="#FFB606"></path><path d="M62.5757 25.721H73.6482V28.8079H58.9309V9.17529H73.2608V12.2622H62.5757V25.721ZM62.2956 17.3361H72.0504V20.3373H62.2956V17.3361Z" fill="white"></path><path d="M83.5732 29.0023C82.1346 29.0023 80.8393 28.6845 79.6873 28.0488C78.5521 27.4276 77.6146 26.4993 76.982 25.3701C76.3298 24.2214 76.0037 22.8708 76.0037 21.3182C76.0037 19.7855 76.3309 18.4394 76.9854 17.2801C77.6149 16.1451 78.5528 15.2115 79.6907 14.5877C80.8828 13.9416 82.221 13.6133 83.5766 13.6342C84.7504 13.6152 85.9092 13.9004 86.9402 14.4619C87.9307 15.013 88.7155 15.8544 89.2946 16.9863C89.8737 18.1182 90.1636 19.5621 90.1644 21.3182C90.1644 23.0576 89.884 24.497 89.3232 25.6365C88.7624 26.7759 87.9913 27.622 87.0099 28.1746C86.027 28.7264 84.8814 29.0023 83.5732 29.0023ZM83.9938 26.0298C84.7833 26.0438 85.5622 25.8465 86.2499 25.4581C86.9252 25.0644 87.4789 24.4919 87.85 23.8038C88.2627 23.0427 88.4706 22.1874 88.4534 21.3217C88.4534 20.3682 88.2523 19.5408 87.85 18.8396C87.4727 18.1634 86.9199 17.6017 86.2499 17.2138C85.5575 16.8365 84.7817 16.6388 83.9932 16.6388C83.2048 16.6388 82.4289 16.8365 81.7365 17.2138C81.067 17.6023 80.5143 18.1639 80.1364 18.8396C79.7341 19.54 79.5334 20.3674 79.5341 21.3217C79.5165 22.1873 79.7241 23.0426 80.1364 23.8038C80.5082 24.4914 81.0617 25.0637 81.7365 25.4581C82.4246 25.8463 83.2039 26.0437 83.9938 26.0298ZM88.5654 28.8057V25.2718L88.6489 21.2897L88.3666 17.3064V7.99774H91.8993V28.8057H88.5654Z" fill="white"></path><path d="M102.831 29.0023C101.56 29.0023 100.439 28.7637 99.4678 28.2866C98.4977 27.8121 97.699 27.0478 97.182 26.0995C96.6303 25.1185 96.3545 23.88 96.3545 22.3838V13.8308H99.8907V21.9356C99.8907 23.2626 100.199 24.258 100.815 24.9219C101.432 25.5858 102.292 25.9177 103.395 25.9177C104.145 25.935 104.888 25.7611 105.553 25.4124C106.173 25.0683 106.671 24.5392 106.977 23.8986C107.313 23.2256 107.481 22.3937 107.481 21.4028V13.8308H110.985V28.8079H107.653V24.7378L108.242 25.9954C107.745 26.9416 106.973 27.7143 106.027 28.2111C105.045 28.7395 103.946 29.0116 102.831 29.0023Z" fill="white"></path><path d="M134.481 13.6341C135.677 13.6341 136.738 13.8681 137.663 14.3361C138.595 14.8105 139.354 15.5655 139.834 16.4946C140.358 17.4672 140.619 18.7103 140.619 20.2241V28.8056H137.15V20.6734C137.15 19.3464 136.855 18.3555 136.266 17.7008C135.677 17.0461 134.839 16.7187 133.752 16.7187C133.041 16.705 132.34 16.8794 131.718 17.2241C131.119 17.5729 130.641 18.0961 130.347 18.7241C130.02 19.3887 129.857 20.2161 129.857 21.2061V28.8056H126.381V20.6734C126.381 19.3464 126.087 18.3555 125.498 17.7008C124.909 17.0461 124.07 16.7187 122.983 16.7187C122.273 16.7048 121.572 16.8792 120.951 17.2241C120.352 17.5729 119.874 18.0961 119.58 18.7241C119.252 19.3887 119.088 20.2161 119.088 21.2061V28.8056H115.613V13.8285H118.949V17.8392L118.332 16.633C118.826 15.6898 119.593 14.9176 120.533 14.4173C121.495 13.8952 122.602 13.6334 123.854 13.6318C125.256 13.6318 126.471 13.9779 127.499 14.6699C128.527 15.362 129.209 16.4291 129.545 17.8712L128.199 17.367C128.666 16.2641 129.46 15.3666 130.582 14.6745C131.705 13.9824 133.004 13.6356 134.481 13.6341Z" fill="white"></path><path d="M149.619 29.0023C148.498 29.0023 147.517 28.8118 146.676 28.4307C145.89 28.0906 145.217 27.5358 144.733 26.8301C144.275 26.1463 144.035 25.3391 144.047 24.516C144.036 23.7179 144.244 22.932 144.649 22.2443C145.052 21.572 145.711 21.0385 146.627 20.6437C147.542 20.2489 148.757 20.0522 150.27 20.0538H154.613V22.3815H150.522C149.344 22.3815 148.544 22.572 148.122 22.9531C147.918 23.1334 147.756 23.356 147.647 23.6054C147.538 23.8548 147.484 24.125 147.491 24.3971C147.484 24.6881 147.55 24.9761 147.682 25.2355C147.814 25.4949 148.008 25.7175 148.247 25.8834C148.752 26.2576 149.453 26.4448 150.35 26.4448C151.16 26.4574 151.958 26.2542 152.662 25.856C153.345 25.4631 153.874 24.85 154.163 24.117L154.723 26.2207C154.389 27.0959 153.753 27.8221 152.929 28.2672C152.068 28.7573 150.964 29.0023 149.619 29.0023ZM154.329 28.8057V25.7496L154.161 25.1323V19.832C154.161 18.8038 153.848 18.0034 153.221 17.431C152.595 16.8586 151.646 16.5736 150.375 16.5759C149.547 16.5767 148.724 16.7091 147.936 16.968C147.184 17.2028 146.481 17.5736 145.862 18.0621L144.491 15.5103C145.359 14.8705 146.338 14.3951 147.378 14.1075C148.499 13.7876 149.66 13.6271 150.826 13.6307C153.012 13.6307 154.694 14.1544 155.872 15.2016C157.05 16.2489 157.638 17.8567 157.637 20.0252V28.8022L154.329 28.8057Z" fill="white"></path></g><defs><clipPath id="clip0_1081_9524"><rect width="160" height="36" fill="white" transform="translate(0 0.5)"></rect></clipPath></defs></svg>