<svg xmlns="http://www.w3.org/2000/svg" width="21" height="20" viewBox="0 0 21 20" fill="none"><g clip-path="url(#clip0_1676_6040)"><path d="M4.64656 0.505371C4.63605 0.56343 4.62499 0.619831 4.61449 0.675125C4.60398 0.729867 4.59348 0.783502 4.58242 0.835479C4.57191 0.887456 4.56085 0.938327 4.55035 0.987539C4.53984 1.03675 4.52878 1.08486 4.51772 1.1313C4.50666 1.17775 4.49561 1.22309 4.48455 1.26678C4.47349 1.31046 4.46188 1.35303 4.45026 1.39451C4.43865 1.43598 4.42649 1.47579 4.41432 1.51505C4.40216 1.55375 4.38944 1.59191 4.37672 1.6284C4.36401 1.6649 4.35073 1.70028 4.33691 1.73457C4.32309 1.76885 4.30926 1.80203 4.29489 1.8341C4.28051 1.86617 4.26558 1.89769 4.2501 1.92754C4.23462 1.95796 4.21913 1.98671 4.20255 2.01491C4.18596 2.04311 4.16937 2.0702 4.15167 2.09675C4.13398 2.12329 4.11629 2.14872 4.09749 2.1736C4.07869 2.19849 4.05933 2.22226 4.03943 2.24493C4.01952 2.26816 3.99851 2.29028 3.97694 2.31184C3.95538 2.33341 3.93326 2.35386 3.91004 2.37432C3.88681 2.39423 3.86304 2.41358 3.83871 2.43238C3.81383 2.45118 3.78839 2.46943 3.76185 2.48657C3.73531 2.50427 3.70766 2.52141 3.67946 2.53799C3.65126 2.55458 3.62195 2.57007 3.59209 2.58555C3.56168 2.60103 3.53072 2.61596 3.49865 2.63034C3.46658 2.64471 3.4334 2.65854 3.39912 2.67236C3.36483 2.68618 3.32945 2.69945 3.29295 2.71217C3.25646 2.72489 3.21886 2.73761 3.1796 2.74977C3.14089 2.76194 3.10053 2.7741 3.05906 2.78571C3.01759 2.79733 2.97501 2.80894 2.93133 2.82C2.88764 2.83106 2.8423 2.84267 2.79585 2.85317C2.74941 2.86423 2.7013 2.87474 2.65209 2.8858C2.60288 2.8963 2.55201 2.90736 2.50003 2.91787C2.44805 2.92837 2.39442 2.93888 2.33968 2.94994C2.28493 2.96044 2.22798 2.97095 2.16992 2.98201C2.22798 2.99252 2.28438 3.00357 2.33968 3.01408C2.39442 3.02459 2.44805 3.03509 2.50003 3.04615C2.55201 3.05666 2.60288 3.06772 2.65209 3.07822C2.7013 3.08873 2.74941 3.09979 2.79585 3.11085C2.8423 3.1219 2.88764 3.13296 2.93133 3.14402C2.97501 3.15508 3.01759 3.16669 3.05906 3.1783C3.10053 3.18992 3.14034 3.20208 3.1796 3.21425C3.2183 3.22641 3.25646 3.23913 3.29295 3.25185C3.32945 3.26456 3.36483 3.27783 3.39912 3.29166C3.4334 3.30548 3.46658 3.31931 3.49865 3.33368C3.53072 3.34806 3.56224 3.36299 3.59209 3.37847C3.62251 3.39395 3.65126 3.40944 3.67946 3.42602C3.70766 3.44261 3.73475 3.4592 3.7613 3.47689C3.78784 3.49459 3.81327 3.51228 3.83816 3.53108C3.86304 3.54988 3.88681 3.56924 3.90948 3.58914C3.93271 3.60905 3.95483 3.63006 3.97639 3.65162C3.99796 3.67319 4.01842 3.69531 4.03887 3.71853C4.05878 3.74175 4.07813 3.76553 4.09693 3.78986C4.11573 3.81474 4.13398 3.84018 4.15112 3.86672C4.16882 3.89326 4.1854 3.92036 4.20199 3.94856C4.21858 3.97676 4.23406 4.00606 4.24955 4.03592C4.26503 4.06633 4.27996 4.0973 4.29433 4.12937C4.30871 4.16144 4.32253 4.19462 4.33636 4.2289C4.35018 4.26318 4.36345 4.29857 4.37617 4.33506C4.38889 4.37156 4.40161 4.40916 4.41377 4.44842C4.42593 4.48712 4.4381 4.52749 4.44971 4.56896C4.46132 4.61043 4.47294 4.65301 4.48399 4.69669C4.49505 4.74037 4.50666 4.78571 4.51717 4.83216C4.52823 4.87861 4.53874 4.92671 4.54979 4.97593C4.5603 5.02514 4.57136 5.07601 4.58187 5.12799C4.59237 5.17996 4.60288 5.2336 4.61394 5.28834C4.62444 5.34308 4.63495 5.40003 4.64601 5.45809C4.65651 5.40003 4.66757 5.34363 4.67808 5.28834C4.68858 5.2336 4.69909 5.17996 4.71015 5.12799C4.72065 5.07601 4.73171 5.02514 4.74222 4.97593C4.75272 4.92671 4.76378 4.87861 4.77484 4.83216C4.7859 4.78571 4.79696 4.74037 4.80802 4.69669C4.81908 4.65301 4.83069 4.61043 4.8423 4.56896C4.85391 4.52749 4.86608 4.48768 4.87824 4.44842C4.89041 4.40971 4.90313 4.37156 4.91584 4.33506C4.92856 4.29857 4.94183 4.26318 4.95566 4.2289C4.96948 4.19462 4.9833 4.16144 4.99768 4.12937C5.01206 4.0973 5.02699 4.06578 5.04247 4.03592C5.05795 4.00551 5.07343 3.97676 5.09002 3.94856C5.10661 3.92036 5.1232 3.89326 5.14089 3.86672C5.15859 3.84018 5.17628 3.81474 5.19508 3.78986C5.21388 3.76498 5.23323 3.7412 5.25314 3.71853C5.27305 3.69531 5.29406 3.67319 5.31562 3.65162C5.33719 3.63006 5.35931 3.6096 5.38253 3.58914C5.40575 3.56924 5.42953 3.54988 5.45386 3.53108C5.47874 3.51228 5.50418 3.49404 5.53072 3.47689C5.55726 3.4592 5.58435 3.44261 5.61255 3.42602C5.64075 3.40944 5.67006 3.39395 5.69992 3.37847C5.73033 3.36299 5.7613 3.34806 5.79337 3.33368C5.82544 3.31931 5.85861 3.30548 5.8929 3.29166C5.92718 3.27783 5.96257 3.26456 5.99906 3.25185C6.03556 3.23913 6.07316 3.22641 6.11242 3.21425C6.15112 3.20208 6.19149 3.18992 6.23296 3.1783C6.27443 3.16669 6.317 3.15508 6.36069 3.14402C6.40437 3.13296 6.44971 3.12135 6.49616 3.11085C6.54261 3.09979 6.59071 3.08928 6.63992 3.07822C6.68914 3.06772 6.74001 3.05666 6.79198 3.04615C6.84396 3.03564 6.8976 3.02514 6.95234 3.01408C7.00708 3.00357 7.06403 2.99307 7.12209 2.98201C7.06403 2.9715 7.00763 2.96044 6.95234 2.94994C6.8976 2.93943 6.84396 2.92893 6.79198 2.91787C6.74001 2.90736 6.68914 2.8963 6.63992 2.8858C6.59071 2.87529 6.54261 2.86423 6.49616 2.85317C6.44971 2.84211 6.40437 2.83106 6.36069 2.82C6.317 2.80894 6.27443 2.79733 6.23296 2.78571C6.19149 2.7741 6.15167 2.76194 6.11242 2.74977C6.07371 2.73761 6.03556 2.72489 5.99906 2.71217C5.96257 2.69945 5.92718 2.68618 5.8929 2.67236C5.85861 2.65854 5.82544 2.64471 5.79337 2.63034C5.7613 2.61596 5.72978 2.60103 5.69992 2.58555C5.66951 2.57007 5.64075 2.55458 5.61255 2.53799C5.58435 2.52141 5.55726 2.50482 5.53072 2.48712C5.50418 2.46943 5.47874 2.45174 5.45386 2.43294C5.42898 2.41414 5.4052 2.39478 5.38253 2.37488C5.35931 2.35497 5.33719 2.33396 5.31562 2.31239C5.29406 2.29083 5.2736 2.26871 5.25314 2.24549C5.23323 2.22226 5.21388 2.19849 5.19508 2.17416C5.17628 2.14927 5.15803 2.12384 5.14089 2.0973C5.1232 2.07076 5.10661 2.04366 5.09002 2.01546C5.07343 1.98726 5.05795 1.95796 5.04247 1.9281C5.02699 1.89769 5.01206 1.86672 4.99768 1.83465C4.9833 1.80258 4.96948 1.7694 4.95566 1.73512C4.94183 1.70084 4.92856 1.66545 4.91584 1.62895C4.90313 1.59246 4.89041 1.55486 4.87824 1.5156C4.86608 1.47689 4.85391 1.43653 4.8423 1.39506C4.83069 1.35359 4.81908 1.31101 4.80802 1.26733C4.79696 1.22365 4.78535 1.1783 4.77484 1.13186C4.76378 1.08541 4.75328 1.0373 4.74222 0.988092C4.73171 0.93888 4.72065 0.888009 4.71015 0.836032C4.69964 0.784055 4.68914 0.730419 4.67808 0.675678C4.66757 0.619831 4.65707 0.56343 4.64656 0.505371Z" fill="url(#paint0_linear_1676_6040)"></path><path d="M17.1362 13.0557C17.1257 13.1137 17.1147 13.1701 17.1042 13.2254C17.0937 13.2802 17.0832 13.3338 17.0721 13.3858C17.061 13.4377 17.0505 13.4886 17.04 13.5378C17.0295 13.587 17.0185 13.6351 17.0074 13.6816C16.9963 13.728 16.9853 13.7734 16.9742 13.8171C16.9632 13.8608 16.9516 13.9033 16.9399 13.9448C16.9283 13.9863 16.9162 14.0261 16.904 14.0653C16.8918 14.104 16.8791 14.1422 16.8664 14.1787C16.8537 14.2152 16.8404 14.2506 16.8266 14.2849C16.8128 14.3191 16.7989 14.3523 16.7846 14.3844C16.7702 14.4165 16.7553 14.448 16.7398 14.4778C16.7243 14.5082 16.7088 14.537 16.6922 14.5652C16.6756 14.5934 16.6591 14.6205 16.6414 14.647C16.6237 14.6736 16.606 14.699 16.5872 14.7239C16.5684 14.7488 16.549 14.7726 16.5291 14.7952C16.5092 14.8185 16.4882 14.8406 16.4666 14.8621C16.4451 14.8837 16.4229 14.9042 16.3997 14.9246C16.3765 14.9445 16.3527 14.9639 16.3284 14.9827C16.3035 15.0015 16.2781 15.0197 16.2515 15.0369C16.225 15.0546 16.1979 15.0711 16.1697 15.0877C16.1415 15.1043 16.1122 15.1198 16.0823 15.1353C16.0519 15.1508 16.021 15.1657 15.9889 15.1801C15.9568 15.1945 15.9236 15.2083 15.8894 15.2221C15.8551 15.2359 15.8197 15.2492 15.7832 15.2619C15.7467 15.2746 15.7091 15.2873 15.6698 15.2995C15.6311 15.3117 15.5908 15.3238 15.5493 15.3355C15.5078 15.3471 15.4652 15.3587 15.4216 15.3697C15.3779 15.3808 15.3325 15.3924 15.2861 15.4029C15.2396 15.414 15.1915 15.4245 15.1423 15.4355C15.0931 15.446 15.0422 15.4571 14.9903 15.4676C14.9383 15.4781 14.8847 15.4886 14.8299 15.4997C14.7752 15.5102 14.7182 15.5207 14.6602 15.5317C14.7182 15.5423 14.7746 15.5533 14.8299 15.5638C14.8847 15.5743 14.9383 15.5848 14.9903 15.5959C15.0422 15.6064 15.0931 15.6175 15.1423 15.628C15.1915 15.6385 15.2396 15.6495 15.2861 15.6606C15.3325 15.6716 15.3779 15.6827 15.4216 15.6938C15.4652 15.7048 15.5078 15.7164 15.5493 15.728C15.5908 15.7397 15.6306 15.7518 15.6698 15.764C15.7085 15.7762 15.7467 15.7889 15.7832 15.8016C15.8197 15.8143 15.8551 15.8276 15.8894 15.8414C15.9236 15.8552 15.9568 15.869 15.9889 15.8834C16.021 15.8978 16.0525 15.9127 16.0823 15.9282C16.1127 15.9437 16.1415 15.9592 16.1697 15.9758C16.1979 15.9924 16.225 16.0089 16.2515 16.0266C16.2781 16.0443 16.3035 16.062 16.3284 16.0808C16.3533 16.0996 16.377 16.119 16.3997 16.1389C16.4229 16.1588 16.4451 16.1798 16.4666 16.2014C16.4882 16.2229 16.5087 16.245 16.5291 16.2683C16.549 16.2915 16.5684 16.3153 16.5872 16.3396C16.606 16.3645 16.6242 16.3899 16.6414 16.4165C16.6591 16.443 16.6756 16.4701 16.6922 16.4983C16.7088 16.5265 16.7243 16.5558 16.7398 16.5857C16.7553 16.6161 16.7702 16.647 16.7846 16.6791C16.7989 16.7112 16.8128 16.7444 16.8266 16.7786C16.8404 16.8129 16.8537 16.8483 16.8664 16.8848C16.8791 16.9213 16.8918 16.9589 16.904 16.9982C16.9162 17.0369 16.9283 17.0772 16.9399 17.1187C16.9516 17.1602 16.9632 17.2027 16.9742 17.2464C16.9853 17.2901 16.9969 17.3355 17.0074 17.3819C17.0185 17.4283 17.029 17.4765 17.04 17.5257C17.0505 17.5749 17.0616 17.6258 17.0721 17.6777C17.0826 17.7297 17.0931 17.7833 17.1042 17.8381C17.1147 17.8928 17.1252 17.9498 17.1362 18.0078C17.1467 17.9498 17.1578 17.8934 17.1683 17.8381C17.1788 17.7833 17.1893 17.7297 17.2004 17.6777C17.2109 17.6258 17.2219 17.5749 17.2325 17.5257C17.243 17.4765 17.254 17.4283 17.2651 17.3819C17.2761 17.3355 17.2872 17.2901 17.2983 17.2464C17.3093 17.2027 17.3209 17.1602 17.3325 17.1187C17.3441 17.0772 17.3563 17.0374 17.3685 16.9982C17.3806 16.9595 17.3934 16.9213 17.4061 16.8848C17.4188 16.8483 17.4321 16.8129 17.4459 16.7786C17.4597 16.7444 17.4735 16.7112 17.4879 16.6791C17.5023 16.647 17.5172 16.6155 17.5327 16.5857C17.5482 16.5552 17.5637 16.5265 17.5803 16.4983C17.5968 16.4701 17.6134 16.443 17.6311 16.4165C17.6488 16.3899 17.6665 16.3645 17.6853 16.3396C17.7041 16.3147 17.7235 16.2909 17.7434 16.2683C17.7633 16.245 17.7843 16.2229 17.8059 16.2014C17.8274 16.1798 17.8495 16.1593 17.8728 16.1389C17.896 16.119 17.9198 16.0996 17.9441 16.0808C17.9684 16.062 17.9944 16.0438 18.021 16.0266C18.0475 16.0089 18.0746 15.9924 18.1028 15.9758C18.131 15.9592 18.1603 15.9437 18.1902 15.9282C18.2206 15.9127 18.2515 15.8978 18.2836 15.8834C18.3157 15.869 18.3488 15.8552 18.3831 15.8414C18.4174 15.8276 18.4528 15.8143 18.4893 15.8016C18.5258 15.7889 18.5634 15.7762 18.6027 15.764C18.6414 15.7518 18.6817 15.7397 18.7232 15.728C18.7647 15.7164 18.8072 15.7048 18.8509 15.6938C18.8946 15.6827 18.9399 15.6711 18.9864 15.6606C19.0328 15.6495 19.0809 15.639 19.1302 15.628C19.1794 15.6175 19.2302 15.6064 19.2822 15.5959C19.3342 15.5854 19.3878 15.5749 19.4426 15.5638C19.4973 15.5533 19.5543 15.5428 19.6123 15.5317C19.5543 15.5212 19.4979 15.5102 19.4426 15.4997C19.3878 15.4892 19.3342 15.4787 19.2822 15.4676C19.2302 15.4571 19.1794 15.446 19.1302 15.4355C19.0809 15.425 19.0328 15.414 18.9864 15.4029C18.9399 15.3919 18.8946 15.3808 18.8509 15.3697C18.8072 15.3587 18.7647 15.3471 18.7232 15.3355C18.6817 15.3238 18.6419 15.3117 18.6027 15.2995C18.5639 15.2873 18.5258 15.2746 18.4893 15.2619C18.4528 15.2492 18.4174 15.2359 18.3831 15.2221C18.3488 15.2083 18.3157 15.1945 18.2836 15.1801C18.2515 15.1657 18.22 15.1508 18.1902 15.1353C18.1597 15.1198 18.131 15.1043 18.1028 15.0877C18.0746 15.0711 18.0475 15.0546 18.021 15.0369C17.9944 15.0192 17.969 15.0015 17.9441 14.9827C17.9192 14.9639 17.8954 14.9445 17.8728 14.9246C17.8495 14.9047 17.8274 14.8837 17.8059 14.8621C17.7843 14.8406 17.7638 14.8185 17.7434 14.7952C17.7235 14.772 17.7041 14.7482 17.6853 14.7239C17.6665 14.699 17.6483 14.6736 17.6311 14.647C17.6134 14.6205 17.5968 14.5934 17.5803 14.5652C17.5637 14.537 17.5482 14.5077 17.5327 14.4778C17.5172 14.4474 17.5023 14.4165 17.4879 14.3844C17.4735 14.3523 17.4597 14.3191 17.4459 14.2849C17.4321 14.2506 17.4188 14.2152 17.4061 14.1787C17.3934 14.1422 17.3806 14.1046 17.3685 14.0653C17.3563 14.0266 17.3441 13.9863 17.3325 13.9448C17.3209 13.9033 17.3093 13.8608 17.2983 13.8171C17.2872 13.7734 17.2756 13.728 17.2651 13.6816C17.254 13.6351 17.2435 13.587 17.2325 13.5378C17.2219 13.4886 17.2109 13.4377 17.2004 13.3858C17.1899 13.3338 17.1794 13.2802 17.1683 13.2254C17.1573 13.1701 17.1467 13.1137 17.1362 13.0557Z" fill="url(#paint1_linear_1676_6040)"></path><path d="M10.5008 0C10.4577 0.234448 10.4146 0.462262 10.372 0.684545C10.3294 0.906829 10.2863 1.12248 10.2437 1.33315C10.2006 1.54327 10.1575 1.74786 10.1143 1.94692C10.0707 2.14598 10.027 2.33895 9.98274 2.52696C9.9385 2.71496 9.89371 2.89688 9.84782 3.07437C9.80192 3.25131 9.75548 3.42328 9.70848 3.59027C9.66092 3.75726 9.61282 3.91927 9.56305 4.07631C9.51329 4.23334 9.46297 4.3854 9.41099 4.53304C9.35902 4.68067 9.30538 4.82389 9.25064 4.96212C9.1959 5.10091 9.13894 5.23472 9.08088 5.36522C9.02283 5.49516 8.96255 5.62123 8.90063 5.74288C8.8387 5.86453 8.77455 5.98231 8.7082 6.09677C8.64185 6.21067 8.57384 6.32126 8.50306 6.42743C8.43228 6.53414 8.35929 6.63699 8.28354 6.73652C8.20779 6.83605 8.12927 6.93226 8.04854 7.02516C7.96726 7.11805 7.88376 7.20818 7.79695 7.29499C7.71014 7.38181 7.62001 7.46586 7.52711 7.54658C7.43422 7.62787 7.338 7.70583 7.23847 7.78159C7.13894 7.85734 7.03554 7.93033 6.92938 8.00111C6.82266 8.07188 6.71262 8.14045 6.59872 8.20625C6.48481 8.2726 6.36703 8.33674 6.24483 8.39867C6.12319 8.4606 5.99711 8.52087 5.86717 8.57893C5.73723 8.63699 5.60287 8.69394 5.46408 8.74869C5.32529 8.80343 5.18263 8.85706 5.03499 8.90904C4.88736 8.96102 4.7353 9.01189 4.57826 9.0611C4.42122 9.11031 4.25921 9.15897 4.09222 9.20652C3.92523 9.25408 3.75327 9.30052 3.57632 9.34587C3.39938 9.39176 3.21691 9.43655 3.02891 9.48079C2.84091 9.52502 2.64793 9.5687 2.44887 9.61238C2.24981 9.65607 2.04577 9.69864 1.8351 9.74177C1.62498 9.7849 1.40878 9.82748 1.1865 9.87006C0.964215 9.91263 0.736402 9.95576 0.501953 9.99889C0.736402 10.042 0.964215 10.0852 1.1865 10.1277C1.40878 10.1703 1.62443 10.2134 1.8351 10.2566C2.04522 10.2997 2.24981 10.3428 2.44887 10.386C2.64793 10.4296 2.84091 10.4733 3.02891 10.5176C3.21691 10.5618 3.39883 10.6066 3.57632 10.6525C3.75327 10.6984 3.92523 10.7448 4.09222 10.7918C4.25921 10.8394 4.42122 10.8875 4.57826 10.9372C4.7353 10.987 4.88736 11.0373 5.03499 11.0893C5.18263 11.1413 5.32584 11.1949 5.46408 11.2497C5.60287 11.3044 5.73668 11.3613 5.86717 11.4194C5.99711 11.4775 6.12319 11.5377 6.24483 11.5997C6.36648 11.6616 6.48426 11.7257 6.59872 11.7921C6.71262 11.8584 6.82321 11.9265 6.92938 11.9972C7.0361 12.068 7.13894 12.141 7.23847 12.2168C7.338 12.2925 7.43422 12.371 7.52711 12.4518C7.62001 12.533 7.71014 12.6165 7.79695 12.7033C7.88376 12.7902 7.96781 12.8803 8.04854 12.9732C8.12982 13.0661 8.20779 13.1623 8.28354 13.2624C8.35929 13.3619 8.43228 13.4653 8.50306 13.5715C8.57384 13.6782 8.6424 13.7882 8.7082 13.9021C8.77455 14.016 8.8387 14.1338 8.90063 14.256C8.96255 14.3777 9.02283 14.5037 9.08088 14.6337C9.13894 14.7636 9.1959 14.898 9.25064 15.0368C9.30538 15.1756 9.35902 15.3182 9.41099 15.4659C9.46297 15.6135 9.51384 15.7655 9.56305 15.9226C9.61282 16.0796 9.66092 16.2416 9.70848 16.4086C9.75603 16.5756 9.80248 16.7476 9.84782 16.9245C9.89371 17.1015 9.9385 17.2839 9.98274 17.4719C10.027 17.6599 10.0707 17.8529 10.1143 18.0514C10.158 18.2505 10.2006 18.4545 10.2437 18.6652C10.2869 18.8753 10.3294 19.0915 10.372 19.3138C10.4146 19.5361 10.4577 19.7639 10.5008 19.9983C10.544 19.7639 10.5871 19.5361 10.6297 19.3138C10.6723 19.0915 10.7154 18.8759 10.7585 18.6652C10.8016 18.4551 10.8448 18.2505 10.8879 18.0514C10.9316 17.8524 10.9753 17.6594 11.0195 17.4719C11.0637 17.2839 11.1085 17.102 11.1544 16.9245C11.2003 16.747 11.2468 16.5756 11.2938 16.4086C11.3413 16.2416 11.3894 16.0796 11.4392 15.9226C11.489 15.7655 11.5393 15.6135 11.5913 15.4659C11.6432 15.3182 11.6969 15.175 11.7516 15.0368C11.8063 14.898 11.8633 14.7642 11.9214 14.6337C11.9794 14.5037 12.0397 14.3777 12.1016 14.256C12.1636 14.1344 12.2277 14.0166 12.294 13.9021C12.3604 13.7882 12.4284 13.6776 12.4992 13.5715C12.57 13.4647 12.643 13.3619 12.7187 13.2624C12.7945 13.1628 12.873 13.0666 12.9537 12.9732C13.035 12.8803 13.1185 12.7902 13.2053 12.7033C13.2921 12.6165 13.3822 12.5325 13.4751 12.4518C13.568 12.3705 13.6642 12.2925 13.7643 12.2168C13.8639 12.141 13.9667 12.068 14.0734 11.9972C14.1801 11.9265 14.2902 11.8579 14.4041 11.7921C14.518 11.7257 14.6358 11.6616 14.758 11.5997C14.8796 11.5377 15.0057 11.4775 15.1356 11.4194C15.2656 11.3613 15.3999 11.3044 15.5387 11.2497C15.6775 11.1949 15.8202 11.1413 15.9678 11.0893C16.1154 11.0373 16.2675 10.9865 16.4245 10.9372C16.5816 10.8875 16.7436 10.8394 16.9106 10.7918C17.0776 10.7443 17.2495 10.6978 17.4265 10.6525C17.6034 10.6066 17.7859 10.5618 17.9739 10.5176C18.1619 10.4733 18.3549 10.4296 18.5534 10.386C18.7524 10.3423 18.9565 10.2997 19.1671 10.2566C19.3773 10.2134 19.5935 10.1709 19.8157 10.1277C20.038 10.0852 20.2658 10.042 20.5003 9.99889C20.2658 9.95576 20.038 9.91263 19.8157 9.87006C19.5935 9.82748 19.3778 9.78435 19.1671 9.74177C18.957 9.69864 18.7524 9.65551 18.5534 9.61238C18.3543 9.5687 18.1613 9.52502 17.9739 9.48079C17.7859 9.43655 17.604 9.39176 17.4265 9.34587C17.2495 9.29997 17.0776 9.25352 16.9106 9.20652C16.7436 9.15952 16.5816 9.11086 16.4245 9.0611C16.2675 9.01133 16.1154 8.96102 15.9678 8.90904C15.8202 8.85706 15.677 8.80343 15.5387 8.74869C15.3999 8.69394 15.2661 8.63699 15.1356 8.57893C15.0057 8.52087 14.8796 8.4606 14.758 8.39867C14.6363 8.33674 14.5185 8.2726 14.4041 8.20625C14.2902 8.13989 14.1796 8.07188 14.0734 8.00111C13.9667 7.93033 13.8639 7.85734 13.7643 7.78159C13.6648 7.70583 13.5686 7.62731 13.4751 7.54658C13.3822 7.4653 13.2921 7.38181 13.2053 7.29499C13.1185 7.20818 13.0344 7.11805 12.9537 7.02516C12.8724 6.93226 12.7945 6.83605 12.7187 6.73652C12.643 6.63699 12.57 6.53359 12.4992 6.42743C12.4284 6.32071 12.3598 6.21067 12.294 6.09677C12.2277 5.98286 12.1636 5.86508 12.1016 5.74288C12.0397 5.62123 11.9794 5.49516 11.9214 5.36522C11.8633 5.23528 11.8063 5.10091 11.7516 4.96212C11.6969 4.82333 11.6432 4.68067 11.5913 4.53304C11.5393 4.3854 11.4884 4.23334 11.4392 4.07631C11.3894 3.91927 11.3413 3.75726 11.2938 3.59027C11.2462 3.42328 11.1998 3.25131 11.1544 3.07437C11.1085 2.89743 11.0637 2.71496 11.0195 2.52696C10.9753 2.33895 10.9316 2.14598 10.8879 1.94692C10.8442 1.74786 10.8016 1.54382 10.7585 1.33315C10.7154 1.12303 10.6728 0.906829 10.6297 0.684545C10.5866 0.462262 10.544 0.234448 10.5008 0Z" fill="url(#paint2_linear_1676_6040)"></path></g><defs><linearGradient id="paint0_linear_1676_6040" x1="3.15995" y1="1.37217" x2="6.66861" y2="3.78795" gradientUnits="userSpaceOnUse"><stop offset="0.134" stop-color="#FFCA0C"></stop><stop offset="0.299" stop-color="#FFAA32"></stop><stop offset="0.784" stop-color="#EF543E"></stop></linearGradient><linearGradient id="paint1_linear_1676_6040" x1="15.6502" y1="13.9224" x2="19.1586" y2="16.3382" gradientUnits="userSpaceOnUse"><stop offset="0.134" stop-color="#FFCA0C"></stop><stop offset="0.299" stop-color="#FFAA32"></stop><stop offset="0.784" stop-color="#EF543E"></stop></linearGradient><linearGradient id="paint2_linear_1676_6040" x1="4.5" y1="3.5" x2="18.668" y2="13.256" gradientUnits="userSpaceOnUse"><stop offset="0.134" stop-color="#FFCA0C"></stop><stop offset="0.299" stop-color="#FFAA32"></stop><stop offset="0.784" stop-color="#EF543E"></stop></linearGradient><clipPath id="clip0_1676_6040"><rect width="20" height="20" fill="white" transform="translate(0.5)"></rect></clipPath></defs></svg>